<svg width="24" height="24" viewBox="0 0 24 24" fill="none" xmlns="http://www.w3.org/2000/svg">
<path fill-rule="evenodd" clip-rule="evenodd" d="M3.33218 21.6008L1.40625 0H22.5691L20.6411 21.5972L11.9749 24L3.33218 21.6008Z" fill="#0071BC"/>
<path fill-rule="evenodd" clip-rule="evenodd" d="M12.0054 22.1622L18.9994 20.2381L20.6381 1.79883H12.0054V22.1622Z" fill="#29ABE2"/>
<path fill-rule="evenodd" clip-rule="evenodd" d="M5.8147 9.73485L6.0467 12.3802L12.0055 9.73485V7.08521L5.8147 9.73485Z" fill="#B3B3B3"/>
<path fill-rule="evenodd" clip-rule="evenodd" d="M18.6049 4.25684L12.0054 7.0852V9.73484L18.3773 6.90219L18.6049 4.25684Z" fill="#E6E6E6"/>
<path fill-rule="evenodd" clip-rule="evenodd" d="M12.0055 16.6564L11.985 16.6595L9.02989 15.8659L8.83683 13.7559H6.17725L6.54839 17.9128L11.9844 19.4179L12.0055 19.413V16.6564Z" fill="#E6E6E6"/>
<path fill-rule="evenodd" clip-rule="evenodd" d="M12.0054 9.73486V12.3802H15.2407L14.9467 15.8388L12.0054 16.6587V19.415L17.4234 17.9098L18.1368 9.73486H12.0054Z" fill="white"/>
<path fill-rule="evenodd" clip-rule="evenodd" d="M12.0055 9.73486H5.8147L6.0467 12.3802H12.0055V9.73486Z" fill="#E6E6E6"/>
<path fill-rule="evenodd" clip-rule="evenodd" d="M12.0054 6.90219V4.25684H11.9785H5.34424L5.57899 6.90219H12.0054Z" fill="#E6E6E6"/>
<path fill-rule="evenodd" clip-rule="evenodd" d="M12.0054 4.25684V6.86902V6.90219H18.3773L18.6049 4.25684H12.0054Z" fill="white"/>
</svg>
