<svg width="24" height="24" viewBox="0 0 24 24" fill="none" xmlns="http://www.w3.org/2000/svg">
<g id="Cypress" clip-path="url(#clip0_226_1263)">
<path id="Vector" d="M13.2798 20.9947L12.8733 21.9815C12.7926 22.1768 12.608 22.3091 12.4002 22.3181C12.2631 22.3233 12.1246 22.3271 11.9848 22.3271C7.20132 22.3246 2.96905 18.9415 1.92028 14.28L0.291992 14.6488C0.88048 17.2635 2.35748 19.6366 4.45117 21.3327C6.56921 23.0479 9.2373 23.9949 11.9669 24C11.9707 24 11.9913 24 11.9913 24C12.1515 24 12.3105 23.9962 12.4695 23.9898C13.3259 23.9538 14.0913 23.4154 14.4183 22.6175L14.9491 21.3275L13.2798 20.9947Z" fill="#4FB38D"/>
<path id="Vector_2" d="M0.425669 15.1795C0.143605 14.149 0 13.0787 0 12.0007C0 7.07966 3.08092 2.58006 7.66705 0.805664L8.26835 2.36677C4.32071 3.89448 1.66931 7.76576 1.66931 12.0007C1.66931 12.9297 1.79239 13.8496 2.03471 14.7362L0.425669 15.1795Z" fill="#4FB38D"/>
<path id="Vector_3" d="M21.1586 7.24665C19.3739 3.80963 15.8609 1.67418 11.9928 1.67418C10.6223 1.67418 9.29016 1.93886 8.03622 2.45923L7.39648 0.913535C8.85424 0.308366 10.4005 0 11.9928 0C16.4866 0 20.5663 2.47979 22.6395 6.47315L21.1586 7.24665Z" fill="#4FB38D"/>
<path id="Vector_4" d="M8.41203 9.52475C9.38003 9.52475 10.1685 10.0426 10.5737 10.9458L10.6057 11.0165L12.2314 10.4627L12.1968 10.3792C11.5673 8.8412 10.1173 7.88525 8.41203 7.88525C7.21326 7.88525 6.23883 8.27075 5.43367 9.0622C4.63365 9.84855 4.22852 10.8379 4.22852 12.0033C4.22852 13.1584 4.63365 14.1426 5.43367 14.9289C6.23883 15.7204 7.21326 16.1059 8.41203 16.1059C10.1173 16.1059 11.5673 15.1499 12.1968 13.6132L12.2314 13.5297L10.6032 12.9746L10.5724 13.0479C10.2096 13.9357 9.40181 14.4664 8.41203 14.4664C7.73766 14.4664 7.1684 14.23 6.71707 13.7648C6.26066 13.2933 6.02989 12.701 6.02989 12.0046C6.02989 11.303 6.25553 10.7223 6.71707 10.2289C7.16711 9.7612 7.73766 9.52475 8.41203 9.52475Z" fill="#4FB38D"/>
<path id="Vector_5" d="M18.5943 8.03687L16.2776 13.9177L13.9454 8.03687H12.0376L15.3083 16.0634L12.9812 21.7245L14.6493 22.0573L20.397 8.03687H18.5943Z" fill="#4FB38D"/>
<path id="Vector_6" d="M22.6396 6.47314C23.4836 8.11738 24 10.0486 24 12.0254C24 16.6379 21.4059 20.6426 17.6013 22.6513L16.7793 21.1937C20.0785 19.4732 22.3318 16.0133 22.3318 12.0254C22.3318 10.2949 21.9087 8.67933 21.1587 7.24664L22.6396 6.47314Z" fill="#4FB38D"/>
</g>
<defs>
<clipPath id="clip0_226_1263">
<rect width="24" height="24" fill="white"/>
</clipPath>
</defs>
</svg>
