<svg width="24" height="24" viewBox="0 0 24 24" fill="none" xmlns="http://www.w3.org/2000/svg">
<path d="M3.28125 19.372L3.42654 19.1685L10.2995 6.12734L10.3141 5.98928L7.28429 0.298325C7.03045 -0.178395 6.31585 -0.0578635 6.23255 0.475788L3.28125 19.372Z" fill="#FFC24A"/>
<path d="M3.36694 19.2169L3.47685 19.0026L10.2778 6.09803L7.25565 0.383926C7.00448 -0.0877994 6.36664 0.032453 6.28421 0.560513L3.36694 19.2169Z" fill="#FFA712"/>
<path d="M12.5227 10.294L14.7786 7.98363L12.522 3.67589C12.3078 3.26813 11.7097 3.26695 11.4978 3.67589L10.2922 5.97514V6.17096L12.5227 10.294Z" fill="#F4BD62"/>
<path d="M12.4826 10.1977L14.6758 7.95162L12.4826 3.77551C12.2744 3.3791 11.7685 3.33756 11.5624 3.73512L10.3504 6.06999L10.3142 6.18936L12.4826 10.1977Z" fill="#FFA50E"/>
<path d="M3.28125 19.3719L3.34711 19.3057L3.58639 19.2085L12.381 10.4465L12.4925 10.1432L10.2986 5.96252L3.28125 19.3719Z" fill="#F6820C"/>
<path d="M12.8045 23.7909L20.7638 19.3519L18.4909 5.35367C18.4198 4.91571 17.8825 4.74256 17.569 5.05659L3.28125 19.372L11.195 23.7905C11.6951 24.0697 12.3042 24.0699 12.8045 23.7909Z" fill="#FDE068"/>
<path d="M20.6924 19.3146L18.4367 5.42264C18.3661 4.98799 17.9193 4.80814 17.6082 5.11979L3.36938 19.3448L11.1962 23.7195C11.6925 23.9966 12.297 23.9968 12.7934 23.7199L20.6924 19.3146Z" fill="#FCCA3F"/>
<path d="M12.8045 23.6601C12.3042 23.9391 11.6951 23.9389 11.195 23.6597L3.34499 19.3047L3.28125 19.372L11.195 23.7905C11.6951 24.0697 12.3042 24.0698 12.8045 23.7909L20.7638 19.3519L20.7443 19.2319L12.8045 23.6601Z" fill="#EEAB37"/>
</svg>
