<svg width="25" height="24" viewBox="0 0 25 24" fill="none" xmlns="http://www.w3.org/2000/svg">
<path fill-rule="evenodd" clip-rule="evenodd" d="M3.70712 21.6009L1.78125 0H22.9432L21.0153 21.5975L12.3493 24L3.70712 21.6009Z" fill="#E44D26"/>
<path fill-rule="evenodd" clip-rule="evenodd" d="M12.3623 22.1635L19.3649 20.2222L21.0124 1.76611H12.3623V22.1635Z" fill="#F16529"/>
<path d="M8.85666 9.77769H12.3623V12.4269H6.43379L5.71924 4.41553H12.3623V7.06481H8.61455L8.85666 9.77769Z" fill="#EBEBEB"/>
<path d="M12.3507 16.6612L12.3623 16.6581V19.4144L12.3501 19.4178L6.92332 17.9113L6.55216 13.7516H9.2116L9.40021 15.8645L12.3507 16.6612Z" fill="#EBEBEB"/>
<path d="M12.353 4.41553H18.9895L18.7522 7.06481H12.353V4.41553Z" fill="white"/>
<path d="M12.353 12.4269V9.77769H18.5112L18.4465 10.4891L17.7842 17.9113L12.353 19.4165V16.6603L15.3078 15.8628L15.6153 12.4269H12.353Z" fill="white"/>
</svg>
