<svg width="24" height="24" viewBox="0 0 24 24" fill="none" xmlns="http://www.w3.org/2000/svg">
<g clip-path="url(#clip0_226_1189)">
<path d="M0 8.68571C0 5.64543 0 4.12529 0.591679 2.96405C1.11213 1.9426 1.9426 1.11213 2.96405 0.591679C4.12529 0 5.64543 0 8.68571 0H15.3143C18.3546 0 19.8747 0 21.0359 0.591679C22.0574 1.11213 22.8879 1.9426 23.4083 2.96405C24 4.12529 24 5.64543 24 8.68571V15.3143C24 18.3546 24 19.8747 23.4083 21.0359C22.8879 22.0574 22.0574 22.8879 21.0359 23.4083C19.8747 24 18.3546 24 15.3143 24H8.68571C5.64543 24 4.12529 24 2.96405 23.4083C1.9426 22.8879 1.11213 22.0574 0.591679 21.0359C0 19.8747 0 18.3546 0 15.3143V8.68571Z" fill="#330000"/>
<path d="M11.63 15.0825H7.91086L7.15417 17.4934C7.13315 17.583 7.05068 17.6464 6.96096 17.642H5.07726C4.96984 17.642 4.93227 17.5815 4.96456 17.4604L8.18454 7.94897C8.21677 7.84991 8.24898 7.73708 8.28117 7.61046C8.32329 7.39014 8.34485 7.16622 8.34557 6.94171C8.33634 6.87539 8.39464 6.8168 8.45827 6.8261H11.0181C11.0931 6.8261 11.1361 6.85363 11.1469 6.90868L14.8017 17.4769C14.8339 17.587 14.8017 17.6421 14.7051 17.642H12.612C12.5386 17.6503 12.4685 17.6 12.451 17.5264L11.63 15.0825ZM8.49045 13.0019H11.0343C10.6163 11.5738 10.1447 10.1644 9.76238 8.72509C9.34992 10.1668 8.89992 11.6027 8.49045 13.0019Z" fill="#FF9A00"/>
<path d="M16.975 8.57642C16.8108 8.58318 16.647 8.55432 16.4944 8.49172C16.3418 8.42912 16.2038 8.33419 16.0895 8.21314C15.9754 8.08684 15.8868 7.93867 15.8288 7.77714C15.7708 7.61561 15.7444 7.44391 15.7513 7.27191C15.7455 7.10161 15.7747 6.93196 15.8371 6.77404C15.8996 6.61612 15.9938 6.47348 16.1136 6.35544C16.2323 6.23862 16.3723 6.1471 16.5257 6.08616C16.6791 6.02522 16.8427 5.99608 17.0071 6.00042C17.3936 6.00042 17.6968 6.11876 17.9168 6.35544C18.0279 6.47844 18.1142 6.6227 18.1708 6.77996C18.2275 6.93722 18.2533 7.10439 18.2468 7.27191C18.2536 7.44458 18.2264 7.61688 18.1669 7.77857C18.1075 7.94026 18.0169 8.08804 17.9007 8.21314C17.7792 8.33596 17.6342 8.43165 17.4749 8.49418C17.3156 8.5567 17.1454 8.5847 16.975 8.57642ZM15.864 17.4768V9.58368C15.864 9.48462 15.9068 9.43507 15.9928 9.43507H17.9732C18.059 9.43507 18.1019 9.48461 18.102 9.58368V17.4768C18.102 17.587 18.059 17.642 17.9732 17.642H16.009C15.9124 17.642 15.8641 17.5869 15.864 17.4768Z" fill="#FF9A00"/>
</g>
<defs>
<clipPath id="clip0_226_1189">
<rect width="24" height="24" fill="white"/>
</clipPath>
</defs>
</svg>
