<svg width="117" height="24" viewBox="0 0 117 24" fill="none" xmlns="http://www.w3.org/2000/svg">
<g clip-path="url(#clip0_229_1332)">
<path d="M77.403 0H97.6401V3.81H89.6044V23.79H85.5865V3.81H77.403V0ZM44.0193 0V3.81H27.7706V9.93H40.8582V13.71H27.7706V20.01H44.0193V23.79H23.7822V0H44.0784H44.0193ZM54.1526 0H48.8939L67.7424 23.82H73.0307L63.5768 11.91L73.0307 0.03H67.7424L60.9475 8.61L54.1526 0.03V0ZM59.559 17.01L56.9001 13.71L48.8939 23.82H54.1526L59.559 17.01Z" fill="white"/>
<path d="M23.93 23.79L5.02234 0H0V23.79H4.01787V5.1L18.8485 23.79H23.93ZM98.5559 23.67C98.2605 23.67 98.0242 23.55 97.8174 23.37C97.6106 23.19 97.4924 22.89 97.4924 22.59C97.4924 22.29 97.581 22.05 97.7878 21.84C97.9946 21.63 98.2605 21.54 98.5559 21.54C98.8514 21.54 99.0877 21.63 99.2945 21.84C99.4675 22.0003 99.58 22.217 99.6123 22.4525C99.6447 22.6881 99.595 22.9277 99.4718 23.13C99.3794 23.2873 99.2501 23.4189 99.0955 23.5131C98.9408 23.6073 98.7656 23.6612 98.5855 23.67H98.5559ZM105.41 13.62H107.183V20.61C107.183 21.24 107.064 21.81 106.798 22.26C106.532 22.7128 106.142 23.0775 105.676 23.31C105.203 23.55 104.642 23.7 103.992 23.7C103.401 23.7 102.899 23.58 102.426 23.4C101.953 23.22 101.599 22.86 101.333 22.44C101.067 22.05 100.919 21.54 100.919 20.94H102.692C102.722 21.18 102.781 21.42 102.899 21.6C103.017 21.78 103.194 21.96 103.371 22.05C103.578 22.17 103.815 22.2 104.081 22.2C104.376 22.2 104.612 22.14 104.79 22.02C104.998 21.8936 105.163 21.705 105.262 21.48C105.351 21.24 105.41 20.94 105.41 20.58V13.65V13.62ZM114.539 16.35C114.521 16.1502 114.458 15.9573 114.356 15.7857C114.254 15.6142 114.114 15.4686 113.948 15.36C113.567 15.1224 113.124 15.0073 112.678 15.03C112.294 15.03 111.969 15.09 111.703 15.18C111.437 15.3 111.23 15.48 111.112 15.66C110.978 15.8267 110.897 16.0312 110.881 16.2458C110.866 16.4605 110.915 16.6749 111.023 16.86C111.112 17.01 111.23 17.13 111.407 17.22L111.939 17.52L112.53 17.67L113.475 17.91C113.859 18 114.214 18.12 114.568 18.27C114.907 18.4037 115.225 18.5855 115.514 18.81C115.799 19.0443 116.027 19.3421 116.181 19.6802C116.334 20.0183 116.409 20.3877 116.4 20.76C116.4 21.36 116.252 21.87 115.957 22.29C115.631 22.759 115.18 23.1234 114.657 23.34C114.125 23.58 113.446 23.7 112.648 23.7C111.88 23.7 111.2 23.58 110.639 23.34C110.048 23.1 109.635 22.74 109.31 22.29C108.981 21.7934 108.806 21.2083 108.807 20.61H110.58C110.59 20.9204 110.696 21.2199 110.881 21.4671C111.066 21.7143 111.322 21.897 111.614 21.99C111.909 22.11 112.264 22.17 112.618 22.17C113.003 22.17 113.357 22.11 113.652 21.99C113.948 21.87 114.184 21.69 114.362 21.48C114.515 21.2723 114.598 21.0196 114.598 20.76C114.598 20.49 114.539 20.28 114.391 20.1C114.201 19.9363 113.993 19.7954 113.771 19.68L112.825 19.38L111.703 19.08C110.875 18.87 110.225 18.57 109.753 18.12C109.517 17.9064 109.331 17.642 109.208 17.3462C109.086 17.0505 109.029 16.7306 109.044 16.41C109.039 15.8667 109.216 15.3379 109.546 14.91C109.864 14.4454 110.304 14.0814 110.816 13.86C111.407 13.62 111.998 13.5 112.707 13.5C113.387 13.5 114.007 13.62 114.539 13.86C115.071 14.1 115.484 14.46 115.809 14.88C116.105 15.3 116.252 15.78 116.252 16.38H114.539V16.35Z" fill="white"/>
</g>
<defs>
<clipPath id="clip0_229_1332">
<rect width="116.4" height="24" fill="white"/>
</clipPath>
</defs>
</svg>
