<svg width="24" height="24" viewBox="0 0 24 24" fill="none" xmlns="http://www.w3.org/2000/svg">
<g clip-path="url(#clip0_226_1190)">
<path d="M0 8.68571C0 5.64543 0 4.12529 0.591679 2.96405C1.11213 1.9426 1.9426 1.11213 2.96405 0.591679C4.12529 0 5.64543 0 8.68571 0H15.3143C18.3546 0 19.8747 0 21.0359 0.591679C22.0574 1.11213 22.8879 1.9426 23.4083 2.96405C24 4.12529 24 5.64543 24 8.68571V15.3143C24 18.3546 24 19.8747 23.4083 21.0359C22.8879 22.0574 22.0574 22.8879 21.0359 23.4083C19.8747 24 18.3546 24 15.3143 24H8.68571C5.64543 24 4.12529 24 2.96405 23.4083C1.9426 22.8879 1.11213 22.0574 0.591679 21.0359C0 19.8747 0 18.3546 0 15.3143V8.68571Z" fill="#001E36"/>
<path d="M5.14282 17.5854V7.03154C5.14282 6.95974 5.17282 6.91872 5.24282 6.91872C6.27622 6.91872 7.30914 6.85718 8.34282 6.85718C10.0201 6.85718 11.8362 7.43069 12.4728 9.18538C12.6228 9.61615 12.7028 10.0572 12.7028 10.5187C12.7028 11.4008 12.5028 12.129 12.1028 12.7033C10.9855 14.3077 9.04882 14.2828 7.31282 14.2828V17.5751C7.3264 17.6726 7.24334 17.7187 7.16282 17.7187H5.26282C5.18282 17.7187 5.14282 17.6777 5.14282 17.5854ZM7.32282 8.8982V12.3444C8.01115 12.3948 8.73145 12.4003 9.39282 12.1803C10.123 11.9696 10.5228 11.3376 10.5228 10.5803C10.5431 9.93491 10.1915 9.31571 9.59282 9.08282C8.93942 8.81113 8.02814 8.79486 7.32282 8.8982Z" fill="#31A8FF"/>
<path d="M18.94 11.6635C18.6374 11.504 18.3151 11.3874 17.982 11.3167C17.5539 11.216 15.8655 10.8632 15.8649 11.7461C15.8798 12.2389 16.6622 12.4804 17.0079 12.6212C18.2215 13.0379 19.5948 13.7826 19.5678 15.2798C19.605 17.1436 17.7992 17.8887 16.2512 17.8888C15.4454 17.8972 14.6059 17.7724 13.8684 17.4265C13.798 17.3892 13.7527 17.3095 13.7557 17.2283V15.4449C13.7478 15.3734 13.8245 15.3109 13.8845 15.3624C14.6071 15.7994 15.4636 16.0115 16.2995 16.0229C16.6685 16.0229 17.3999 15.9871 17.3944 15.4449C17.3944 14.9246 16.5195 14.6854 16.1707 14.5532C15.6652 14.3728 15.1859 14.1228 14.7459 13.8102C14.131 13.3716 13.7452 12.6683 13.7557 11.8947C13.7521 10.1398 15.4144 9.35207 16.9114 9.3517C17.6112 9.34593 18.3627 9.39775 19.0141 9.68195C19.1078 9.70953 19.1272 9.8082 19.1268 9.89662V11.5644C19.1328 11.6679 19.0178 11.7032 18.94 11.6635Z" fill="#31A8FF"/>
</g>
<defs>
<clipPath id="clip0_226_1190">
<rect width="24" height="24" fill="white"/>
</clipPath>
</defs>
</svg>
