<svg width="24" height="24" viewBox="0 0 24 24" fill="none" xmlns="http://www.w3.org/2000/svg">
<path d="M14.8106 14.6238L14.3502 15.4231C14.2115 15.6639 13.9548 15.8124 13.6769 15.8124H10.1503C9.87242 15.8124 9.61569 15.6639 9.477 15.4231L9.01661 14.6238H14.8106ZM16.0994 12.3859L15.2876 13.7954H8.53954L7.72786 12.3859H16.0994ZM15.3175 10.1976L16.1007 11.5576H7.72656L8.50976 10.1976H15.3175ZM13.6769 8.12891C13.9548 8.12891 14.2115 8.27732 14.3502 8.51813L14.8404 9.36922H8.98682L9.477 8.51813C9.61569 8.27732 9.87242 8.12891 10.1503 8.12891H13.6769Z" fill="#00435B"/>
<path d="M5.01776 7.758C4.6271 5.86369 4.54326 4.41077 4.79579 3.35575C4.94597 2.72829 5.22054 2.21641 5.63806 1.8471C6.07884 1.4572 6.63613 1.26588 7.26231 1.26588C8.29531 1.26588 9.38125 1.73694 10.5418 2.63184C11.0151 2.99685 11.5064 3.43681 12.0166 3.95198C12.0572 3.8997 12.1031 3.85038 12.1543 3.80481C13.5968 2.51937 14.8112 1.72071 15.8499 1.41277C16.4675 1.22967 17.0474 1.21222 17.5754 1.38993C18.1328 1.57751 18.577 1.96526 18.8903 2.50838C19.4074 3.40473 19.5438 4.58253 19.351 6.03682C19.2724 6.6296 19.1381 7.27531 18.9483 7.97494C19.0199 7.98359 19.0917 7.99947 19.1627 8.02302C20.9929 8.62952 22.2889 9.28173 23.0735 10.0271C23.5403 10.4706 23.8451 10.9643 23.9553 11.5108C24.0716 12.0876 23.9582 12.6662 23.6452 13.2089C23.1291 14.104 22.18 14.8099 20.8279 15.369C20.285 15.5935 19.6707 15.7969 18.9844 15.9798C19.0157 16.0505 19.04 16.1256 19.0563 16.2043C19.4469 18.0986 19.5308 19.5516 19.2782 20.6066C19.1281 21.234 18.8535 21.7459 18.436 22.1152C17.9952 22.5051 17.4379 22.6964 16.8117 22.6964C15.7787 22.6964 14.6928 22.2254 13.5323 21.3305C13.0539 20.9616 12.5572 20.5161 12.0411 19.9939C11.988 20.0769 11.9228 20.1541 11.8457 20.2228C10.4032 21.5083 9.18881 22.3069 8.1501 22.6149C7.53248 22.798 6.95261 22.8154 6.42456 22.6377C5.86716 22.4501 5.42303 22.0624 5.10969 21.5193C4.59255 20.6229 4.45618 19.4451 4.64898 17.9908C4.7304 17.3766 4.8717 16.7056 5.07254 15.9766C4.99403 15.9687 4.91521 15.9521 4.83726 15.9262C3.00708 15.3197 1.71113 14.6675 0.926524 13.9222C0.459705 13.4787 0.154867 12.985 0.0446697 12.4385C-0.0716433 11.8616 0.0417709 11.283 0.354752 10.7403C0.870921 9.84527 1.82 9.13936 3.17209 8.58022C3.73118 8.34902 4.36594 8.14028 5.07713 7.95321C5.05179 7.89119 5.03178 7.82596 5.01776 7.758Z" fill="#002B3B"/>
<path d="M17.7795 16.3905C17.9615 16.3583 18.1359 16.475 18.1765 16.6539L18.1787 16.6645L18.1981 16.7653C18.8272 20.0725 18.3841 21.726 16.8688 21.726C15.3862 21.726 13.499 20.315 11.207 17.493C11.1563 17.4307 11.129 17.3526 11.1297 17.2723C11.1314 17.0852 11.2815 16.9341 11.4673 16.9301L11.4781 16.93L11.5988 16.9309C12.5632 16.9361 13.5009 16.9025 14.4116 16.83C15.4867 16.7444 16.6093 16.5979 17.7795 16.3905ZM7.37316 13.8906L7.37897 13.9004L7.43953 14.0061C7.92486 14.8499 8.43051 15.6507 8.95648 16.4086C9.5759 17.3012 10.2725 18.2048 11.0462 19.1194C11.1659 19.2609 11.1522 19.4709 11.0172 19.5958L11.0084 19.6036L10.9305 19.6706C8.37061 21.8641 6.70675 22.302 5.93897 20.9843C5.18743 19.6945 5.4599 17.3493 6.7564 13.9486C6.78489 13.8739 6.83843 13.8114 6.90789 13.7717C7.07021 13.6791 7.27602 13.7326 7.37316 13.8906ZM19.0786 9.0106L19.089 9.01401L19.1854 9.04729C22.3452 10.1465 23.5457 11.3544 22.7869 12.6711C22.0447 13.9589 19.8872 14.8966 16.3143 15.484C16.2346 15.4971 16.1529 15.4819 16.0833 15.441C15.9188 15.3443 15.8639 15.1327 15.9606 14.9683C16.4723 14.0978 16.9332 13.2316 17.3433 12.3698C17.8083 11.3925 18.2447 10.3434 18.6525 9.22259C18.7144 9.05267 18.896 8.96037 19.068 9.00754L19.0786 9.0106ZM7.91697 8.45718C8.08138 8.55383 8.13631 8.76547 8.03966 8.92988C7.52791 9.80036 7.06702 10.6665 6.65697 11.5283C6.19192 12.5057 5.75549 13.5548 5.34769 14.6755C5.2846 14.8489 5.09678 14.9415 4.92167 14.8875L4.91118 14.8841L4.81483 14.8509C1.65501 13.7517 0.454509 12.5437 1.21333 11.227C1.95549 9.9392 4.11302 9.00158 7.68594 8.41412C7.76561 8.40102 7.84736 8.41626 7.91697 8.45718ZM18.0613 3.04335C18.8128 4.33315 18.5403 6.67838 17.2438 10.079C17.2153 10.1538 17.1618 10.2163 17.0923 10.2559C16.93 10.3486 16.7242 10.2951 16.6271 10.137L16.6213 10.1272L16.5607 10.0215C16.0754 9.17774 15.5697 8.3769 15.0437 7.619C14.4243 6.72644 13.7278 5.82286 12.954 4.90827C12.8344 4.76678 12.848 4.55677 12.9831 4.43187L12.9918 4.42401L13.0697 4.35701C15.6296 2.16356 17.2935 1.72567 18.0613 3.04335ZM7.26094 2.25842C8.74349 2.25842 10.6308 3.66944 12.9227 6.49146C12.9734 6.55381 13.0007 6.63187 13 6.71219C12.9984 6.8993 12.8482 7.05035 12.6624 7.05441L12.6517 7.05448L12.531 7.05362C11.5665 7.04839 10.6289 7.08202 9.71812 7.15451C8.64302 7.24007 7.52038 7.38655 6.3502 7.59393C6.16822 7.62618 5.99385 7.50951 5.95322 7.33053L5.95098 7.31993L5.93159 7.2192C5.30254 3.91202 5.74566 2.25842 7.26094 2.25842Z" fill="#FF4154"/>
<path d="M13.394 8.17212H10.4338C10.0009 8.17212 9.601 8.40367 9.38551 8.77915L7.89914 11.3691C7.68531 11.7416 7.68531 12.1997 7.89914 12.5723L9.38551 15.1622C9.601 15.5377 10.0009 15.7692 10.4338 15.7692H13.394C13.8269 15.7692 14.2268 15.5377 14.4423 15.1622L15.9287 12.5723C16.1425 12.1997 16.1425 11.7416 15.9287 11.3691L14.4423 8.77915C14.2268 8.40367 13.8269 8.17212 13.394 8.17212Z" fill="#FFD94C"/>
</svg>
