<svg width="24" height="24" viewBox="0 0 24 24" fill="none" xmlns="http://www.w3.org/2000/svg">
<path d="M16.3401 16.1671C17.1704 16.0826 17.8003 15.3789 17.7717 14.5343C17.7431 13.6899 17.0273 13.0142 16.1683 13.0142H16.1111C15.2234 13.0424 14.5363 13.7743 14.5649 14.6469C14.5936 15.0692 14.7653 15.4351 15.023 15.6885C14.0495 17.5746 12.5607 18.9539 10.3274 20.1081C8.80983 20.8963 7.2351 21.1778 5.66036 20.9808C4.37188 20.8118 3.36976 20.2489 2.73976 19.3198C1.82358 17.9405 1.73771 16.4485 2.5108 14.9566C3.05484 13.8869 3.91371 13.0987 4.45775 12.7046C4.34323 12.3386 4.17141 11.7193 4.08554 11.269C-0.0661534 14.2247 0.363368 18.222 1.62319 20.1081C2.56802 21.5156 4.48641 22.3883 6.60518 22.3883C7.17779 22.3883 7.7504 22.3319 8.3231 22.1913C11.988 21.4875 14.7654 19.348 16.3401 16.1671V16.1671ZM21.3794 12.6765C19.2033 10.1711 15.9966 8.79176 12.3316 8.79176H11.8735C11.6158 8.28507 11.0718 7.94721 10.4705 7.94721H10.4132C9.5257 7.97538 8.83857 8.70725 8.86714 9.57997C8.89579 10.4244 9.61157 11.1001 10.4705 11.1001H10.5277C11.1577 11.0719 11.7017 10.6778 11.9307 10.1429H12.4461C14.6222 10.1429 16.6837 10.7622 18.5449 11.9727C19.9764 12.9017 21.0072 14.1121 21.5798 15.5759C22.0666 16.7582 22.0379 17.9123 21.5225 18.8977C20.7209 20.3896 19.3752 21.2059 17.6 21.2059C16.4546 21.2059 15.3667 20.8681 14.794 20.6147C14.479 20.8963 13.9063 21.3466 13.5055 21.6282C14.7367 22.1912 15.9966 22.5009 17.1991 22.5009C19.9478 22.5009 21.9807 21.0089 22.7538 19.5169C23.5841 17.8842 23.5268 15.0692 21.3794 12.6765V12.6765ZM6.83423 16.6455C6.86288 17.4901 7.57866 18.1656 8.43762 18.1656H8.49492C9.38253 18.1375 10.0697 17.4056 10.041 16.5329C10.0124 15.6884 9.29657 15.0129 8.43762 15.0129H8.3804C8.3231 15.0129 8.23714 15.0129 8.18001 15.0409C7.00605 13.1267 6.51932 11.0437 6.69114 8.79167C6.80558 7.10266 7.37827 5.63883 8.3804 4.42835C9.2107 3.38679 10.8141 2.88009 11.9022 2.85201C14.9371 2.79567 16.2255 6.51146 16.3115 8.00346C16.6837 8.08788 17.3136 8.28498 17.7431 8.42574C17.3995 3.86549 14.5363 1.50085 11.7877 1.50085C9.2107 1.50085 6.83423 3.33062 5.88932 6.03302C4.57227 9.63622 5.43123 13.0987 7.03462 15.8292C6.89153 16.0262 6.80558 16.3359 6.83423 16.6456V16.6455Z" fill="#764ABC"/>
</svg>
