<svg width="21" height="24" viewBox="0 0 21 24" fill="none" xmlns="http://www.w3.org/2000/svg">
<path id="Shape" fill-rule="evenodd" clip-rule="evenodd" d="M6.45341 14.686C6.07196 14.9245 5.49725 15.3109 5.05264 15.7313C4.32272 16.4206 4.16998 17.3767 4.55504 17.6001C4.91122 17.8066 5.74277 17.5609 6.33791 16.9118C6.96249 16.2303 7.22007 15.3663 6.95405 14.3856C6.92279 14.4042 6.89211 14.4229 6.86201 14.4403L6.86266 14.4416L6.8223 14.4645C6.66702 14.5572 6.54012 14.6336 6.45341 14.686ZM17.1725 14.3765C16.9565 14.8461 16.9456 14.9972 17.0113 15.0442C17.3248 14.9316 17.8435 14.6601 17.8476 13.9327C17.8482 13.8238 17.8242 13.7069 17.7856 13.5848C17.4505 13.8816 17.2573 14.1923 17.1725 14.3765ZM20.5366 12.9568C19.6991 12.8592 19.0456 12.9767 18.5384 13.188C18.6323 13.4324 18.7045 13.6871 18.7146 13.9436C18.7382 14.5065 18.3507 14.9232 17.9468 15.2206C17.711 15.394 17.46 15.5096 17.2494 15.5794C17.081 15.6505 16.8571 15.7239 16.6982 15.6915C16.3479 15.6203 16.1615 15.3091 16.3998 14.6228C16.5285 14.2514 16.8998 13.6859 17.4991 13.1989C17.3625 12.9177 17.2103 12.6311 17.1327 12.3679C16.9798 11.849 16.9336 11.5353 16.9336 11.5353C16.9336 11.5353 16.4396 12.5595 15.8023 13.4908C15.7655 13.545 15.7289 13.5981 15.6921 13.651C15.8173 13.9418 15.9159 14.2495 15.9293 14.5596C15.9527 15.1225 15.709 15.5482 15.3046 15.845C15.0857 16.0064 14.8521 16.1179 14.6517 16.1888C14.5236 16.2448 14.263 16.3368 13.8923 16.3616C13.6896 16.3755 13.4947 16.3629 13.3858 16.2804C13.2359 16.1672 13.2179 16.0275 13.2955 15.8366C13.3611 15.6746 13.8521 15.1142 14.2637 14.6234C14.3774 14.4879 14.4857 14.3495 14.5826 14.2212L14.5802 14.2157C14.5802 14.2157 14.6547 14.1195 14.7757 13.9515C14.6253 13.6276 14.4346 13.2904 14.3449 12.9845C14.192 12.4656 14.1457 12.1518 14.1457 12.1518C14.1457 12.1518 13.645 13.4355 13.1234 14.4603C12.7197 15.2539 12.4501 15.7349 12.3286 15.9456L12.3273 15.9541C12.3273 15.9541 12.3092 15.9848 12.278 16.033L12.2546 16.072L12.2539 16.0684C12.1185 16.2684 11.8146 16.6603 11.5126 16.6603C10.6834 16.6603 10.9879 14.9763 10.9879 14.9763C10.9879 14.9763 10.7455 15.6 10.4722 16.1353C10.2497 16.5718 10.0469 16.9416 9.60341 16.9416C9.47585 16.9416 9.27365 16.9379 9.10573 16.7782C8.72486 16.4164 8.43364 15.4976 8.49074 14.7859C8.53947 14.1809 8.63274 13.7618 8.76029 13.4121C8.53282 13.536 8.26991 13.683 8.00216 13.8402L7.59053 14.0828L7.60382 14.1069C7.94433 14.7656 8.03522 16.2088 7.29267 17.3166C6.5502 18.425 5.16806 19.0994 3.82143 18.7249C3.38691 18.6039 2.7305 17.705 3.29668 16.452C3.79608 15.3471 5.79199 14.3025 6.31797 14.0418L6.46235 13.9624C5.41366 13.0447 2.79489 11.8069 2.42788 9.90549C2.32436 9.37024 2.57529 8.09022 4.14693 6.61874C5.46887 5.38146 7.30776 4.43375 9.00647 3.82984C11.8603 2.81536 14.8757 3.41378 15.3395 5.23331C15.7956 7.02275 14.2433 9.16319 12.2552 9.93264C10.4801 10.6196 9.01246 10.5106 8.40953 10.3126C7.72416 10.0874 7.3222 9.6352 7.22417 9.37992C7.18562 9.28 7.11934 9.11208 7.22417 9.05425C7.28849 9.01873 7.31433 9.02718 7.48643 9.21741C7.65016 9.39805 8.30838 9.88277 9.55879 9.74241C12.84 9.37459 14.8166 6.82349 14.192 5.4507C13.7546 4.48978 11.2256 4.05625 8.0659 5.6319C4.20887 7.55497 3.99952 9.1403 3.96646 9.74241C3.87615 11.3987 6.00921 12.27 7.16339 13.5017L7.20785 13.5506C7.42384 13.4314 7.65197 13.3055 7.87575 13.1827C8.45768 12.863 9.00647 12.5631 9.26216 12.4234C9.66838 11.8329 10.4926 11.1813 11.0878 11.1813C12.0391 11.1813 11.7124 12.5487 11.7124 12.5487C11.7124 12.5487 11.7316 12.4861 11.7575 12.4855C11.7845 12.4848 11.8893 12.3054 12.183 12.4125C12.485 12.5234 12.4164 12.7353 12.4182 12.757C12.4218 12.7991 12.0614 14.0147 11.9116 14.7944C11.8399 15.1665 11.8814 15.4375 11.9026 15.4375C11.932 15.4375 11.9922 15.3429 12.0482 15.2412L12.047 15.2382C12.047 15.2382 12.089 15.1612 12.1595 15.0227L12.1734 14.9937L12.1739 14.995C12.257 14.8325 12.3737 14.5934 12.5085 14.2972C12.7726 13.715 13.7804 11.4674 13.8659 11.2187C13.9513 10.9701 13.9959 10.713 14.038 10.6028C14.0795 10.4926 14.4358 10.4095 14.8521 10.4125C15.2685 10.4156 15.3107 10.5932 15.3136 10.6299C15.3167 10.6666 15.1157 11.1598 15.0693 11.5083C15.0236 11.8569 15.0676 12.0308 15.1055 12.3235C15.1302 12.5149 15.2499 12.7576 15.3914 13.0328C15.8222 12.3283 16.5803 10.9808 16.6531 10.6033C16.703 10.3451 16.783 10.0976 16.8252 9.98736C16.8673 9.87719 17.223 9.79418 17.6393 9.79713C18.0557 9.80016 18.0978 9.97776 18.1008 10.0145C18.1038 10.0513 17.9022 10.5444 17.8565 10.893C17.8107 11.241 17.8548 11.4156 17.8926 11.7082C17.9252 11.9587 18.1188 12.2952 18.3109 12.6781C18.8349 12.4198 19.4517 12.2464 20.1738 12.2428C20.4728 12.2411 20.8201 12.2711 20.9994 12.3271V6.5669C20.9994 6.16051 20.7911 5.78604 20.4392 5.58318L11.0427 0.152209C10.6914 -0.0507364 10.2611 -0.0507364 9.90972 0.152209L0.539192 5.58055C0.18777 5.7835 0 6.15863 0 6.56436V17.431C0 17.8367 0.188918 18.2118 0.539766 18.4147L9.92539 23.8473C10.2767 24.0509 10.7028 24.0509 11.0541 23.8473L20.444 18.4147C20.7954 18.2112 21 17.8366 21 17.431V13.0393C20.8808 13.0042 20.7064 12.9766 20.5366 12.9568ZM10.4277 12.3878C10.2262 12.6135 9.88265 13.1957 9.72195 13.683C9.40244 14.6504 9.54082 15.6337 9.76707 15.6927C10.0312 15.7619 10.4645 14.4687 10.672 13.9628C10.802 13.6461 11.3075 12.2404 11.1967 12.0525C11.1102 11.9056 10.7521 12.0242 10.4277 12.3878ZM14.0833 15.6487C14.0833 15.6487 14.0196 15.709 14.0471 15.7258C14.0845 15.7481 14.1651 15.7191 14.253 15.6734C14.5015 15.5169 15.0592 15.1267 15.0605 14.5493C15.0605 14.5325 15.0598 14.5162 15.0587 14.4988C14.9293 14.6686 14.8101 14.8197 14.7072 14.9479C14.5315 15.1664 14.0833 15.6487 14.0833 15.6487Z" fill="#CF649A"/>
</svg>
