<svg width="24" height="24" viewBox="0 0 24 24" fill="none" xmlns="http://www.w3.org/2000/svg">
<g clip-path="url(#clip0_226_1188)">
<path d="M22.9908 14.3928C24.3044 13.0792 24.3044 10.9418 22.9908 9.62819C22.3545 8.99186 21.5084 8.64145 20.6085 8.64145C20.3948 8.64145 20.1844 8.66093 19.9792 8.69933C20.8735 8.08767 21.4529 7.05914 21.4529 5.91546C21.4529 4.05774 19.9415 2.54638 18.0838 2.54638C16.9379 2.54638 15.9076 3.12817 15.2964 4.02538C15.4986 2.95877 15.1814 1.81881 14.3711 1.00852C13.7348 0.372179 12.8887 0.0217285 11.9888 0.0217285C11.0889 0.0217285 10.2428 0.372179 9.60651 1.00852C8.79617 1.81881 8.47901 2.95881 8.68124 4.02542C8.07004 3.12821 7.03969 2.54638 5.89373 2.54638C4.03601 2.54638 2.52465 4.05774 2.52465 5.91546C2.52465 7.05918 3.10407 8.08767 3.99828 8.69929C3.7931 8.66093 3.5828 8.64145 3.36908 8.64145C2.46917 8.64145 1.62313 8.9919 0.986789 9.62824C0.350451 10.2646 0 11.1107 0 12.0105C0 12.9104 0.350451 13.7565 0.986789 14.3929C1.62313 15.0292 2.46921 15.3796 3.36908 15.3796C3.58276 15.3796 3.79306 15.3601 3.99828 15.3217C3.10407 15.9334 2.52465 16.9619 2.52465 18.1056C2.52465 19.9633 4.03601 21.4746 5.89373 21.4746C7.03969 21.4746 8.07008 20.8929 8.68124 19.9956C8.47901 21.0623 8.79621 22.2023 9.60651 23.0126C10.2428 23.6489 11.0889 23.9993 11.9888 23.9993C12.8887 23.9993 13.7348 23.6489 14.3711 23.0125C15.1814 22.2022 15.4985 21.0622 15.2963 19.9956C15.9075 20.8928 16.9379 21.4746 18.0838 21.4746C19.9415 21.4746 21.4529 19.9633 21.4529 18.1056C21.4529 16.9619 20.8735 15.9334 19.9793 15.3217C20.1845 15.3601 20.3948 15.3796 20.6085 15.3796C21.5084 15.3796 22.3545 15.0292 22.9908 14.3928Z" fill="black"/>
<path d="M21.9741 10.6442C21.2195 9.88968 19.996 9.88968 19.2414 10.6442H15.2867L18.0831 7.84783C19.1503 7.84783 20.0154 6.98273 20.0154 5.91553C20.0154 4.84838 19.1503 3.98323 18.0831 3.98323C17.0159 3.98323 16.1508 4.84838 16.1508 5.91553L13.3544 8.712V4.75723C14.109 4.00263 14.109 2.77918 13.3544 2.02457C12.5998 1.26997 11.3763 1.26997 10.6217 2.02457C9.8671 2.77918 9.8671 4.00263 10.6217 4.75723V8.712L7.82529 5.91553C7.82529 4.84838 6.96019 3.98323 5.89299 3.98323C4.82583 3.98323 3.96069 4.84838 3.96069 5.91553C3.96069 6.98273 4.82583 7.84783 5.89299 7.84783L8.68941 10.6442H4.73469C3.98005 9.88964 2.7566 9.88969 2.00199 10.6443C1.24738 11.3989 1.24738 12.6223 2.00199 13.377C2.7566 14.1316 3.98009 14.1316 4.73469 13.377H8.68941L5.89299 16.1734C4.82583 16.1734 3.96069 17.0385 3.96069 18.1057C3.96069 19.1728 4.82583 20.038 5.89299 20.038C6.96019 20.038 7.82529 19.1728 7.82529 18.1057L10.6217 15.3092V19.264C9.8671 20.0186 9.8671 21.2421 10.6217 21.9967C11.3763 22.7513 12.5998 22.7513 13.3544 21.9967C14.109 21.2421 14.109 20.0186 13.3544 19.264V15.3092L16.1508 18.1057C16.1508 19.1728 17.0159 20.038 18.0831 20.038C19.1503 20.038 20.0154 19.1728 20.0154 18.1057C20.0154 17.0385 19.1503 16.1734 18.0831 16.1734L15.2867 13.377H19.2414C19.996 14.1316 21.2195 14.1316 21.9741 13.377C22.7287 12.6223 22.7287 11.3989 21.9741 10.6442Z" fill="#FFB13B"/>
</g>
<defs>
<clipPath id="clip0_226_1188">
<rect width="24" height="24" fill="white"/>
</clipPath>
</defs>
</svg>
