<svg width="576" height="362" viewBox="0 0 576 362" fill="none" xmlns="http://www.w3.org/2000/svg">
<path d="M232 161.8C263.8 146.6 280.4 123.6 280.4 87.8C280.4 17.2 227.8 0 167.1 0H0V354.4H171.8C236.2 354.4 296.7 323.5 296.7 251.5C296.7 207 275.6 174.1 232 161.8ZM77.9 60.5H151C179.1 60.5 204.4 68.4 204.4 101C204.4 131.1 184.7 143.2 156.9 143.2H77.9V60.5ZM161.2 294.2H77.9V196.6H162.8C197.1 196.6 218.8 210.9 218.8 247.2C218.8 283 192.9 294.2 161.2 294.2ZM519.7 53.5H376V18.6H519.7V53.5ZM576 229.8C576 153.9 531.6 90.6 451.1 90.6C372.9 90.6 319.8 149.4 319.8 226.4C319.8 306.3 370.1 361.1 451.1 361.1C512.4 361.1 552.1 333.5 571.2 274.8H509C502.3 296.7 474.7 308.3 453.3 308.3C412 308.3 390.3 284.1 390.3 243H575.4C575.7 238.8 576 234.3 576 229.8ZM390.4 198.6C392.7 164.9 415.1 143.8 448.9 143.8C484.3 143.8 502.1 164.6 505.1 198.6H390.4Z" fill="black"/>
</svg>
