<svg width="98" height="98" viewBox="0 0 98 98" fill="none" xmlns="http://www.w3.org/2000/svg">
<path d="M20.9463 62.1534C21.0252 62.1802 21.1066 62.1989 21.1893 62.2093C22.2855 62.1987 23.3818 62.1899 24.4781 62.1812C27.5792 62.1564 30.6803 62.1316 33.7805 62.0645C35.0734 62.0588 36.3272 61.62 37.3415 60.8182C39.1191 59.3885 39.469 57.4213 39.3172 55.3107C39.1472 52.9461 37.9555 51.454 35.715 50.8492C34.7575 50.583 33.7708 50.4361 32.7773 50.4121C29.9949 50.373 27.2119 50.3771 24.4288 50.3813C23.4635 50.3828 22.4982 50.3842 21.5329 50.3838C21.4097 50.3838 21.2864 50.3927 21.1526 50.4023C21.0868 50.407 21.0185 50.4119 20.9463 50.416L20.9463 62.1534Z" fill="white"/>
<path d="M20.942 42.9584C21.0111 42.9622 21.0751 42.9665 21.1358 42.9706C21.2564 42.9788 21.3636 42.9861 21.4709 42.9862C22.3423 42.9865 23.2137 42.9878 24.0851 42.9891C26.7038 42.993 29.3224 42.9969 31.9408 42.9736C32.795 42.9693 33.6463 42.8736 34.4801 42.6881C36.2323 42.2882 37.8169 41.5863 38.2322 39.5844C38.4006 38.7962 38.4562 37.9881 38.3974 37.1843C38.2442 35.3415 37.2159 34.1625 35.4286 33.7377C34.4894 33.4921 33.5268 33.3462 32.557 33.3023C29.7359 33.243 26.9139 33.2255 24.0919 33.208L24.0848 33.208C23.1587 33.2022 22.2326 33.1965 21.3065 33.1893C21.1837 33.1985 21.0619 33.217 20.942 33.2446L20.942 42.9584Z" fill="white"/>
<path d="M60.885 50.1765H75.7178C75.6138 46.4238 73.2301 43.4702 68.5919 43.3003C64.3121 43.1436 61.5546 45.452 60.885 50.1765Z" fill="white"/>
<path fill-rule="evenodd" clip-rule="evenodd" d="M48.815 97.63C75.7748 97.63 97.63 75.7748 97.63 48.815C97.63 21.8552 75.7748 0 48.815 0C21.8552 0 0 21.8552 0 48.815C0 75.7748 21.8552 97.63 48.815 97.63ZM42.1565 45.9795C42.4862 46.1884 42.823 46.3901 43.1605 46.5923C43.9114 47.042 44.6659 47.4939 45.3531 48.0317C47.161 49.4468 48.1469 51.3979 48.6076 53.6233C49.7454 59.1203 47.5584 64.7344 42.8279 67.6973C41.0627 68.7787 39.0681 69.4302 37.0049 69.5992C34.9548 69.7966 32.8888 69.8965 30.8289 69.91C26.5323 69.9382 22.2355 69.9331 17.9387 69.928C16.2534 69.926 14.5681 69.9239 12.8828 69.9239H11.9795V25.4948C12.0438 25.4917 12.1101 25.4877 12.1777 25.4835C12.3275 25.4743 12.4842 25.4647 12.6407 25.4647C19.6672 25.4631 26.6938 25.4639 33.7203 25.4671C36.5218 25.4714 39.256 25.872 41.7731 27.1848C45.2821 29.0148 47.1494 31.9596 47.3736 35.8887C47.4536 37.2097 47.3778 38.5355 47.1476 39.8388C46.6716 42.4476 45.1047 44.3216 42.8096 45.6063C42.6362 45.7033 42.464 45.8025 42.3201 45.8855L42.3185 45.8863L42.3169 45.8873C42.2581 45.9212 42.2039 45.9524 42.1565 45.9795ZM84.8677 55.9501C76.9139 55.946 68.9601 55.9423 61.0064 55.9389C60.9477 55.9389 60.889 55.9455 60.8052 55.955C60.7722 55.9587 60.7354 55.9629 60.6931 55.9672L60.6307 55.9734C60.7177 58.4398 61.3461 60.6465 63.3144 62.2792C65.9651 64.4779 70.6517 64.7013 73.4389 62.7028C73.8811 62.3857 74.2326 61.9442 74.5851 61.5013C74.7823 61.2537 74.9798 61.0055 75.1937 60.7785C75.3845 60.576 75.6582 60.3174 75.8967 60.3146C78.2066 60.2879 80.517 60.2927 82.8273 60.2975C83.2475 60.2983 83.6676 60.2992 84.0878 60.2999C84.1945 60.3138 84.2996 60.3384 84.4014 60.3733C84.141 62.1842 83.2883 63.6883 82.2019 65.0792C79.3769 68.6959 75.5955 70.4777 71.0884 70.9299C66.1315 71.4272 61.5755 70.4541 57.5022 67.4837C54.6527 65.4058 53.0138 62.5818 52.3431 59.1761C51.4385 54.5817 51.4787 50.0194 53.2354 45.6098C55.1511 40.8006 58.7672 37.8835 63.7512 36.7083C68.3263 35.6296 72.8067 35.9918 77.0287 38.1716C80.3254 39.8736 82.4759 42.645 83.6915 46.0857C84.0649 47.1424 84.2595 48.2623 84.4541 49.3822L84.4543 49.3832C84.5438 49.8984 84.6333 50.4136 84.7403 50.9227C84.763 51.0307 84.7941 51.137 84.8252 51.2432C84.8396 51.2925 84.8541 51.3417 84.8677 51.3912L84.8677 55.9501ZM58.5486 27.5507V33.0414L77.8443 33.0414V27.5507H58.5486Z" fill="white"/>
</svg>
