<svg width="24" height="24" viewBox="0 0 24 24" fill="none" xmlns="http://www.w3.org/2000/svg">
<path fill-rule="evenodd" clip-rule="evenodd" d="M23.1873 10.961L12.9939 0.768463C12.4073 0.181346 11.4552 0.181346 10.8678 0.768463L8.75116 2.88511L11.4362 5.57017C12.0602 5.35935 12.7757 5.50075 13.2731 5.99821C13.7729 6.49875 13.9133 7.22035 13.6973 7.8464L16.2851 10.4341C16.9111 10.2184 17.6335 10.358 18.1335 10.8588C18.8323 11.5574 18.8323 12.6896 18.1335 13.3887C17.4345 14.0877 16.3022 14.0877 15.6029 13.3887C15.0773 12.8625 14.9474 12.0905 15.2135 11.4429L12.8003 9.0296L12.8 15.3803C12.9704 15.4648 13.1312 15.5773 13.2731 15.7187C13.9719 16.4172 13.9719 17.5495 13.2731 18.249C12.5741 18.9478 11.4413 18.9478 10.7433 18.249C10.0445 17.5495 10.0445 16.4172 10.7433 15.7187C10.916 15.5463 11.1158 15.4159 11.3289 15.3283V8.91843C11.1158 8.83134 10.9162 8.70172 10.7433 8.52804C10.2138 7.99933 10.0865 7.2224 10.3578 6.57227L7.71115 3.92512L0.721844 10.9139C0.13447 11.5015 0.13447 12.4537 0.721844 13.0408L10.9152 23.2336C11.5021 23.8208 12.4539 23.8208 13.0416 23.2336L23.1873 13.0882C23.7744 12.5008 23.7744 11.5482 23.1873 10.961Z" fill="#DE4C36"/>
</svg>
