<svg width="24" height="24" viewBox="0 0 24 24" fill="none" xmlns="http://www.w3.org/2000/svg">
<g clip-path="url(#clip0_184_1016)">
<path fill-rule="evenodd" clip-rule="evenodd" d="M0 0H24V24H0V0V0Z" fill="#464646"/>
<path fill-rule="evenodd" clip-rule="evenodd" d="M6.31058 20.0561L8.14723 18.9446C8.50156 19.5729 8.82388 20.1044 9.59702 20.1044C10.3381 20.1044 10.8054 19.8145 10.8054 18.6869V11.0183H13.0608V18.7188C13.0608 21.0548 11.6915 22.118 9.69371 22.118C7.88948 22.118 6.84217 21.1836 6.31055 20.0559" fill="#FFCE50"/>
<path fill-rule="evenodd" clip-rule="evenodd" d="M14.2856 19.8145L16.1221 18.7512C16.6055 19.5407 17.2338 20.1206 18.3453 20.1206C19.2799 20.1206 19.8758 19.6534 19.8758 19.009C19.8758 18.2357 19.2636 17.9618 18.2325 17.5109L17.6688 17.269C16.0416 16.5764 14.9622 15.7065 14.9622 13.8699C14.9622 12.1783 16.251 10.8894 18.2648 10.8894C19.6987 10.8894 20.7297 11.3889 21.4707 12.6938L19.7147 13.8215C19.328 13.1288 18.9093 12.855 18.2649 12.855C17.6043 12.855 17.1855 13.2738 17.1855 13.8215C17.1855 14.4981 17.6043 14.7721 18.5709 15.191L19.1347 15.4326C21.0518 16.2543 22.1312 17.0919 22.1312 18.9768C22.1312 21.0068 20.5363 22.1183 18.3937 22.1183C16.2994 22.1183 14.9461 21.1195 14.2857 19.8145" fill="#FFCE50"/>
</g>
<defs>
<clipPath id="clip0_184_1016">
<rect width="24" height="24" fill="white"/>
</clipPath>
</defs>
</svg>
