<svg width="98" height="98" viewBox="0 0 98 98" fill="none" xmlns="http://www.w3.org/2000/svg">
<path fill-rule="evenodd" clip-rule="evenodd" d="M48.815 97.63C75.7748 97.63 97.63 75.7748 97.63 48.815C97.63 21.8552 75.7748 0 48.815 0C21.8552 0 0 21.8552 0 48.815C0 75.7748 21.8552 97.63 48.815 97.63ZM26.753 71.59H36.2069V41.1526H26.753V71.59ZM26 31.4749C26 34.4972 28.4525 37.0006 31.4749 37.0006C34.4972 37.0006 36.9497 34.4972 36.9497 31.4749C36.9497 30.0228 36.3729 28.6303 35.3462 27.6036C34.3195 26.5768 32.9269 26 31.4749 26C30.0228 26 28.6303 26.5768 27.6036 27.6036C26.5768 28.6303 26 30.0228 26 31.4749ZM62.1464 71.59H71.5798H71.59V54.8703C71.59 46.6885 69.8295 40.3893 60.2637 40.3893C55.664 40.3893 52.5806 42.9131 51.3187 45.3045H51.1864V41.1526H42.1193V71.59H51.563V56.5188C51.563 52.5501 52.316 48.7136 57.2312 48.7136C62.0751 48.7136 62.1464 53.2421 62.1464 56.7733V71.59Z" fill="white"/>
</svg>
