<svg width="193" height="201" viewBox="0 0 193 201" fill="none" xmlns="http://www.w3.org/2000/svg">
<path d="M25.3955 138.97C25.3955 138.97 58.722 140.498 71.8691 127.351C85.0162 114.204 83.4875 80.8777 83.4875 80.8777C83.4875 80.8777 84.0684 115.152 97.2156 128.299C110.363 141.446 144.637 142.027 144.637 142.027C144.637 142.027 109.507 142.302 98.1634 153.646C86.8202 164.989 86.545 200.119 86.545 200.119C86.545 200.119 85.6736 166.135 72.5265 152.988C59.3793 139.841 25.3955 138.97 25.3955 138.97Z" fill="#E62441"/>
<path d="M0 75C0 75 17.7842 75.8158 24.8 68.8C31.8158 61.7842 31 44 31 44C31 44 31.31 62.29 38.3258 69.3058C45.3416 76.3216 63.6317 76.6316 63.6317 76.6316C63.6317 76.6316 44.8848 76.7785 38.8316 82.8316C32.7785 88.8847 32.6316 107.632 32.6316 107.632C32.6316 107.632 32.1666 89.4966 25.1508 82.4808C18.135 75.465 0 75 0 75Z" fill="#E62441"/>
<path d="M73.7578 58.3669C73.7578 58.3669 107.084 59.8957 120.231 46.7485C133.379 33.6014 131.85 0.274942 131.85 0.274942C131.85 0.274942 132.431 34.5492 145.578 47.6964C158.725 60.8435 192.999 61.4244 192.999 61.4244C192.999 61.4244 157.869 61.6996 146.526 73.0428C135.183 84.386 134.907 119.516 134.907 119.516C134.907 119.516 134.036 85.5326 120.889 72.3855C107.742 59.2383 73.7578 58.3669 73.7578 58.3669Z" fill="#E62441"/>
</svg>
