<svg width="24" height="24" viewBox="0 0 24 24" fill="none" xmlns="http://www.w3.org/2000/svg">
<path d="M12 4.78125C8.8 4.78125 6.8 6.38125 6 9.58125C7.2 7.98125 8.6 7.38125 10.2 7.78125C11.1129 8.00947 11.7654 8.67174 12.4876 9.40485C13.6641 10.5991 15.0258 11.9813 18 11.9813C21.2 11.9813 23.2 10.3813 24 7.18125C22.8 8.78125 21.4 9.38125 19.8 8.98125C18.8871 8.75303 18.2346 8.09076 17.5124 7.35765C16.3359 6.16343 14.9742 4.78125 12 4.78125ZM6 11.9813C2.8 11.9813 0.8 13.5813 0 16.7813C1.2 15.1813 2.6 14.5813 4.2 14.9813C5.11289 15.2095 5.76538 15.8717 6.4876 16.6049C7.66413 17.7991 9.02582 19.1813 12 19.1813C15.2 19.1813 17.2 17.5813 18 14.3813C16.8 15.9813 15.4 16.5813 13.8 16.1813C12.8871 15.953 12.2346 15.2908 11.5124 14.5577C10.3359 13.3634 8.97418 11.9813 6 11.9813Z" fill="url(#paint0_linear_223_1162)"/>
<defs>
<linearGradient id="paint0_linear_223_1162" x1="-0.666667" y1="9.38925" x2="20.0613" y2="21.3405" gradientUnits="userSpaceOnUse">
<stop stop-color="#2298BD"/>
<stop offset="1" stop-color="#0ED7B5"/>
</linearGradient>
</defs>
</svg>
